<?xml version="1.0" standalone="no"?>
<!DOCTYPE svg PUBLIC "-//W3C//DTD SVG 20010904//EN"
 "http://www.w3.org/TR/2001/REC-SVG-20010904/DTD/svg10.dtd">
<svg version="1.0" xmlns="http://www.w3.org/2000/svg"
 width="220.000000pt" height="220.000000pt" viewBox="0 0 220.000000 220.000000"
 preserveAspectRatio="xMidYMid meet">
<metadata>
Created by potrace 1.14, written by Peter Selinger 2001-2017
</metadata>
<g transform="translate(0.000000,220.000000) scale(0.100000,-0.100000)"
fill="#000000" stroke="none">
<path d="M12 1421 c2 -5 64 -73 138 -151 144 -153 153 -162 323 -344 62 -66
121 -127 131 -138 17 -16 37 -18 149 -18 146 0 140 -6 62 76 -35 36 -230 244
-306 325 -15 16 -75 80 -135 144 l-108 115 -129 0 c-71 0 -127 -4 -125 -9z"/>
<path d="M691 1393 c18 -20 43 -46 54 -58 11 -12 77 -82 146 -156 140 -148
160 -170 292 -311 l91 -98 137 0 136 0 97 102 98 103 96 -103 97 -102 133 0
c127 0 131 1 115 18 -10 10 -74 79 -143 152 -69 73 -133 142 -143 152 -10 11
-17 23 -15 28 3 8 223 245 267 287 l24 23 -135 0 -135 0 -81 -87 -82 -87 -21
25 c-11 13 -48 52 -81 87 l-60 63 -130 -3 -130 -3 93 -99 c52 -55 117 -125
146 -155 l52 -55 -57 -60 c-31 -33 -76 -80 -98 -104 l-42 -43 -23 24 c-13 13
-80 84 -149 157 -69 73 -136 145 -150 160 -14 15 -57 61 -97 103 l-72 77 -132
0 -133 0 35 -37z"/>
</g>
</svg>
