<svg width="15" height="22" viewBox="0 0 15 22" fill="none" xmlns="http://www.w3.org/2000/svg">
<path d="M11.9374 11.1493V5.4991C11.9374 5.14766 12.1038 4.81731 12.3818 4.64298C13.1829 4.1399 14 4.76358 14 5.59701V13.6766L13.9276 16.6617C13.9276 19.5632 11.785 21 9.14201 21C7.7018 21 6.02963 20.1944 5.15248 19.0896C5.15248 19.0896 3.77089 16.637 3.37936 15.9055L1.13835 11.8494C0.85356 11.3069 1.02255 10.6131 1.51577 10.2999C1.98365 10.0026 2.5753 10.1546 2.87818 10.6342C2.91979 10.6999 2.96213 10.7652 3.00809 10.8269L4.26556 12.5164C4.32309 12.594 4.43744 12.5499 4.43816 12.4496L4.44721 11.3877V3.999C4.44721 3.46368 4.84164 3.02985 5.32834 3.02985H5.62833C6.11503 3.02985 6.50946 3.46368 6.50946 3.999V11.1493C6.50946 11.281 6.6068 11.3881 6.72658 11.3881C6.84635 11.3881 6.9437 11.281 6.9437 11.1493V2.13433C6.9437 1.50786 7.40543 1 7.975 1C8.54457 1 9.00631 1.50786 9.00631 2.13433V11.1493C9.00631 11.281 9.10365 11.3881 9.22342 11.3881C9.3432 11.3881 9.44054 11.281 9.44054 11.1493V3.48756C9.44054 2.86109 9.90228 2.35323 10.4718 2.35323C11.0414 2.35323 11.5032 2.86109 11.5032 3.48756V11.1493C11.5032 11.281 11.6005 11.3881 11.7203 11.3881C11.8404 11.3881 11.9374 11.281 11.9374 11.1493Z" stroke="white" stroke-miterlimit="10" stroke-linecap="square"/>
</svg>
