<svg width="10" height="16" viewBox="0 0 10 16" fill="none" xmlns="http://www.w3.org/2000/svg">
<path d="M8.60577 6.89269C8.23066 6.48241 7.77349 6.17763 7.23426 5.96663C6.70676 5.76735 6.00342 5.55635 5.13598 5.35707C4.39747 5.18124 3.82308 5.01713 3.38936 4.86474C3.29558 4.84129 3.21353 4.80613 3.14319 4.77096C2.81497 4.64202 2.52191 4.45446 2.29919 4.23174C2.2523 4.18485 2.20541 4.12624 2.1468 4.06763C1.95924 3.80974 1.87719 3.50496 1.87719 3.11812C1.87719 2.50856 2.13508 2.00451 2.66258 1.61767C3.17836 1.23084 3.96375 1.04328 4.99531 1.04328C5.53453 1.04328 6.0972 1.11362 6.65987 1.27773C7.21082 1.43012 7.73832 1.67628 8.24238 1.99278L8.66438 1.01984C8.19549 0.703336 7.63282 0.457168 6.98809 0.269612C6.33165 0.0937781 5.6752 0 4.99531 0C4.02236 0 3.21353 0.140667 2.5688 0.433724C1.91235 0.715058 1.43174 1.09017 1.11524 1.57078C0.787018 2.0514 0.634628 2.5789 0.634628 3.15329C0.634628 3.86835 0.822185 4.43102 1.1973 4.84129C1.20902 4.85302 1.20902 4.85302 1.22074 4.86474C1.49035 5.1578 1.79513 5.39224 2.13508 5.5798C2.26402 5.65013 2.41641 5.70874 2.55708 5.76735C3.0963 5.97835 3.81136 6.18935 4.69053 6.40036C5.44076 6.57619 6.01515 6.7403 6.43715 6.89269C6.84743 7.03336 7.1991 7.24436 7.49215 7.52569C7.78521 7.79531 7.92588 8.1587 7.92588 8.61586C7.92588 8.97925 7.8321 9.29575 7.63282 9.57709C7.5156 9.76465 7.33976 9.94048 7.12876 10.0929C6.97637 10.2101 6.78882 10.3039 6.57782 10.3742C6.92948 10.5149 7.24599 10.7141 7.49215 10.9486C7.53904 10.9838 7.57421 11.0306 7.59765 11.0775C7.99621 10.8548 8.32443 10.5969 8.5706 10.2804C8.60577 10.2335 8.64093 10.1866 8.6761 10.1398C9.00432 9.65914 9.15671 9.13164 9.15671 8.55725C9.15671 7.85392 8.96916 7.30297 8.60577 6.89269Z" fill="white"/>
<path d="M8.60576 10.3156L8.57059 10.2804C8.30098 9.98737 7.9962 9.75292 7.64453 9.57709C7.50387 9.50676 7.37492 9.44815 7.23425 9.40126C6.70675 9.19026 6.00342 8.99098 5.13597 8.77998C4.39747 8.60414 3.82308 8.44003 3.38935 8.29936C2.94391 8.14697 2.59224 7.93597 2.29918 7.65464C2.00613 7.37331 1.87718 7.00992 1.87718 6.55275C1.87718 6.18936 1.95924 5.86113 2.13507 5.5798C2.26402 5.38052 2.43985 5.20469 2.65085 5.0523C2.79152 4.9468 2.95563 4.85302 3.13146 4.77096C2.81496 4.64202 2.52191 4.45446 2.29918 4.23174C2.25229 4.18485 2.2054 4.12624 2.14679 4.06763C1.75996 4.27863 1.44346 4.54824 1.22073 4.86474C1.17385 4.89991 1.13868 4.9468 1.11523 4.99369C0.78701 5.4743 0.634621 6.0018 0.634621 6.57619C0.634621 7.29125 0.822177 7.85392 1.19729 8.27592C1.5724 8.6862 2.02957 8.99098 2.55707 9.20198C3.0963 9.40126 3.81135 9.61226 4.69052 9.83498C5.44075 10.0108 6.01514 10.1632 6.43714 10.3156C6.48403 10.3273 6.5192 10.3508 6.56609 10.3742C6.91775 10.5149 7.23426 10.7141 7.48042 10.9486C7.52731 10.9838 7.56248 11.0307 7.58592 11.0775C7.80865 11.3354 7.91415 11.6519 7.91415 12.0505C7.91415 12.6483 7.64453 13.1407 7.11703 13.5158C6.58953 13.8909 5.79242 14.0784 4.72569 14.0784C3.97547 14.0784 3.23696 13.9495 2.53363 13.6916C1.83029 13.4337 1.26762 13.1055 0.8339 12.6835L0.353287 13.6213C0.78701 14.0667 1.40829 14.4301 2.21713 14.6997C3.02596 14.9811 3.86997 15.11 4.73741 15.11C5.71036 15.11 6.5192 14.9811 7.19909 14.6997C7.86726 14.4184 8.34787 14.0433 8.67609 13.5627C9.00432 13.0938 9.15671 12.5663 9.15671 11.9802C9.15671 11.2768 8.96915 10.7259 8.60576 10.3156Z" fill="white"/>
</svg>
